Coordinates
version=1
nRows=7
nColumns=33
inDegrees=yes

Units are S.I. units (second, meters, Newtons, ...)
Angles are in degrees.

endheader
time	ground_thorax_rot_x	ground_thorax_rot_y	ground_thorax_rot_z	ground_thorax_tx	ground_thorax_ty	ground_thorax_tz	clav_prot_r	clav_elev_r	scapula_abduction_r	scapula_elevation_r	scapula_upward_rot_r	scapula_winging_r	shoulder_elv_r	plane_of_elev_r	axial_rot_r	elbow_flexion_r	pro_sup_r	wrist_flex_r	wrist_dev_r	clav_prot_l	clav_elev_l	scapula_abduction_l	scapula_elevation_l	scapula_upward_rot_l	scapula_winging_l	shoulder_elv_l	plane_of_elev_l	axial_rot_l	elbow_flexion_l	pro_sup_l	wrist_flex_l	wrist_dev_l
      7.94000000	    -35.97880644	     -6.95519893	      9.61098766	    -90.14292682	    783.83013442	     10.42125071	      1.15655758	    -45.00000000	     45.00000000	    -45.00000000	     -3.32618876	   2784.21908177	   -479.76403286	    152.14269888	   -109.69849083	   1810.41806493	     26.39232745	     15.82897518	     10.79903532	     17.08980039	     35.71416094	    -45.00000000	    -34.98029187	    -27.78871542	  -3881.44587516	     65.30091058	     24.24925847	    -36.78714260	   1809.09046470	     29.21682486	      7.78249182	    -17.03904687
      7.95000000	    -35.93479150	     -6.84428313	      9.41986497	    -89.08097353	    783.89623474	     10.72841798	      1.03677647	    -45.00000000	     45.00000000	    -45.00000000	     -3.01068586	   2784.39324211	   -479.76118763	    152.17133272	   -109.92158946	   1810.37577992	     26.15647699	     15.81978160	     10.86577345	     17.11833003	     35.59280044	    -45.00000000	    -34.82489958	    -27.37842478	  -3881.52328655	     65.19839894	     24.30699704	    -36.52665922	   1808.94714908	     29.18705604	      7.84229764	    -17.04445073
      7.96000000	    -35.91984160	     -6.81663866	      9.26716878	    -88.12694064	    783.98087173	     11.02116363	      0.95361535	    -45.00000000	     45.00000000	    -45.00000000	     -2.80599691	   2784.54040162	   -479.78557771	    152.20668366	   -110.05838221	   1810.39850511	     25.86639190	     15.82018530	     10.90119237	     17.02464150	     35.49778575	    -45.00000000	    -34.72471739	    -27.03255729	  -3881.60045436	     65.08492830	     24.24387927	    -36.26941524	   1808.92304579	     29.08181173	      7.87639348	    -17.06831462
      7.97000000	    -35.96133236	     -6.85998864	      9.20895517	    -87.27112655	    784.08123358	     11.30138853	      0.89525212	    -45.00000000	     45.00000000	    -45.00000000	     -2.73234164	   2784.72674351	   -479.81089008	    152.28797969	   -110.14895397	   1810.45414531	     25.55132295	     15.84488414	     10.96653662	     16.92265418	     35.32364943	    -45.00000000	    -34.80914692	    -26.75443545	  -3881.78506757	     64.90013967	     24.13912257	    -36.01252909	   1808.77363183	     28.94246538	      7.94118745	    -17.06724630
      7.98000000	    -35.84916323	     -6.70313918	      9.01051147	    -86.49972130	    784.19566003	     11.57502353	      0.87012258	    -45.00000000	     45.00000000	    -45.00000000	     -2.36764343	   2784.73478803	   -479.86096178	    152.14551643	   -110.31178891	   1810.28075960	     25.20428668	     15.74867968	     10.96403246	     17.03586128	     35.36663303	    -45.00000000	    -34.39387289	    -26.48450698	  -3881.65513722	     64.96595245	     24.48292965	    -35.80287855	   1808.49198669	     28.77087843	      8.00149880	    -16.98603541
      7.99000000	    -35.87896857	     -6.58360316	      8.83536194	    -85.81377368	    784.32049945	     11.83825343	      0.71375600	    -45.00000000	     45.00000000	    -45.00000000	     -2.07401421	   2784.84575676	   -479.87959046	    152.23707434	   -110.32159161	   1810.34373135	     24.78438705	     15.75756870	     11.02886360	     16.92641063	     35.36976744	    -45.00000000	    -34.36870774	    -26.10163059	  -3881.73756615	     64.92422459	     24.41810765	    -35.59401498	   1808.56842883	     28.51336514	      8.04876368	    -17.02963061
      8.00000000	    -35.91624984	     -6.56288045	      8.72247939	    -85.20048280	    784.45454008	     12.09227027	      0.67384233	    -45.00000000	     45.00000000	    -45.00000000	     -1.91652731	   2784.94744510	   -479.91898793	    152.25242379	   -110.28176644	   1810.39570624	     24.39790015	     15.76219929	     11.05359301	     16.94546752	     35.24222879	    -45.00000000	    -34.38774356	    -25.84157970	  -3881.73759601	     64.72609214	     24.47096653	    -35.39551999	   1808.47906869	     28.26788681	      8.09169238	    -17.00899819
